<svg width="102" height="101" viewBox="0 0 102 101" fill="none" xmlns="http://www.w3.org/2000/svg">
<path d="M6.88281 80.7409V42.353L41.2159 70.5243L43.0551 72.05L93.9416 44.0999V70.2759C93.9416 71.0102 93.5393 71.6854 92.8935 72.0349L41.2159 100L7.95208 82.5112C7.29456 82.1655 6.88281 81.4838 6.88281 80.7409Z" fill="white"/>
<path d="M41.2159 100L7.95208 82.5112C7.29456 82.1655 6.88281 81.4838 6.88281 80.7409V42.353L41.2159 70.5243M41.2159 100V70.5243M41.2159 100L92.8935 72.0349C93.5393 71.6854 93.9416 71.0102 93.9416 70.2759V44.0999L43.0551 72.05L41.2159 70.5243" stroke="#434343" stroke-linejoin="round"/>
<path d="M1 32.3802L58.5363 0.668914C59.2664 0.266547 60.1694 0.359177 60.8026 0.901373L101 35.3238V40.0148C101 40.7515 100.595 41.4285 99.946 41.7769L42.875 72.4138L1.73608 38.8677C1.27029 38.4879 1 37.9187 1 37.3177V32.3802Z" fill="#C4C4C4"/>
<path d="M1 32.3802L58.5363 0.668914C59.2664 0.266547 60.1694 0.359177 60.8026 0.901373L101 35.3238M1 32.3802L42.875 67.704M1 32.3802V37.3177C1 37.9187 1.27029 38.4879 1.73608 38.8677L42.875 72.4138M101 35.3238L42.875 67.704M101 35.3238V40.0148C101 40.7515 100.595 41.4285 99.946 41.7769L42.875 72.4138M42.875 67.704V72.4138" stroke="#434343" stroke-width="0.5" stroke-linejoin="round"/>
</svg>
