<svg width="102" height="102" viewBox="0 0 102 102" fill="none" xmlns="http://www.w3.org/2000/svg">
<path d="M8.14258 81.9526V37.905H22.4283L42.6664 59.3336L93.8569 32.5479L94.4521 71.8336L42.6664 101L8.14258 81.9526Z" fill="white"/>
<path d="M42.6664 101L8.14258 81.9526V37.905H22.4283L42.6664 59.3336M42.6664 101L94.4521 71.8336L93.8569 32.5479L42.6664 59.3336M42.6664 101V59.3336" stroke="#434343" stroke-linejoin="round"/>
<path d="M44.0303 61.7143L22.1977 38.6605C21.82 38.2616 21.2949 38.0357 20.7456 38.0357H3C1.89543 38.0357 1 37.1403 1 36.0357V33.7857L58.7247 1.2576C59.0244 1.08872 59.3625 1 59.7065 1H79.1818L101 24.0714V27.772C101 28.4875 100.618 29.1486 99.9976 29.5055L44.0303 61.7143Z" fill="#C4C4C4"/>
<path d="M1 33.7857H22.2121M1 33.7857V36.0357C1 37.1403 1.89543 38.0357 3 38.0357H20.7456C21.2949 38.0357 21.82 38.2616 22.1977 38.6605L44.0303 61.7143M1 33.7857L58.7247 1.2576C59.0244 1.08872 59.3625 1 59.7065 1H79.1818M22.2121 33.7857L44.0303 57.4643M22.2121 33.7857L79.1818 1M44.0303 57.4643V61.7143M44.0303 57.4643L101 24.0714M44.0303 61.7143L99.9976 29.5055C100.618 29.1486 101 28.4875 101 27.772V24.0714M79.1818 1L101 24.0714" stroke="#434343" stroke-width="0.5" stroke-linejoin="round"/>
</svg>
