<svg width="102" height="102" viewBox="0 0 102 102" fill="none" xmlns="http://www.w3.org/2000/svg">
<path d="M94.1048 34.918V71.1753L42.3807 101L8.47266 82.2864V44.8595L42.3807 62.9881L94.1048 34.918Z" fill="white"/>
<path d="M42.3807 101L94.1048 71.1753V34.918L42.3807 62.9881M42.3807 101V62.9881M42.3807 101L8.47266 82.2864V44.8595L42.3807 62.9881" stroke="#434343" stroke-linejoin="round"/>
<path d="M1 36.0877L59.6207 1L101 26.731V30.2414C101 30.963 100.611 31.6287 99.9827 31.9833L42.954 64.1579L2.04478 41.9188C1.40087 41.5688 1 40.8946 1 40.1617V36.0877Z" fill="#C4C4C4"/>
<path d="M1 36.0877L42.954 24.3918M1 36.0877L42.954 60.0643M1 36.0877L59.6207 1M1 36.0877V40.1617C1 40.8946 1.40087 41.5688 2.04478 41.9188L42.954 64.1579M42.954 24.3918V60.0643M42.954 24.3918L58.4713 14.4503M42.954 60.0643L101 26.731M42.954 60.0643V64.1579M59.6207 1L58.4713 14.4503M59.6207 1L101 26.731M58.4713 14.4503L101 26.731M101 26.731V30.2414C101 30.963 100.611 31.6287 99.9827 31.9833L42.954 64.1579" stroke="#434343" stroke-width="0.5" stroke-linejoin="round"/>
</svg>
