<svg width="102" height="102" viewBox="0 0 102 102" fill="none" xmlns="http://www.w3.org/2000/svg">
<path d="M9.98242 77.7439V37.6276L51.8986 60.3021L93.216 36.4648V77.1625L51.8986 101L9.98242 77.7439Z" fill="white"/>
<path d="M51.8986 101L9.98242 77.7439V37.6276L51.8986 60.3021M51.8986 101L93.216 77.1625V36.4648L51.8986 60.3021M51.8986 101V60.3021" stroke="#434343" stroke-linejoin="round"/>
<path d="M1 28.3256L51.8982 1L101 28.907V32.3944C101 33.1138 100.614 33.7777 99.9882 34.1332L51.8982 61.4651L2.03847 34.1275C1.39808 33.7764 1 33.1041 1 32.3738V28.3256Z" fill="#C4C4C4"/>
<path d="M1 28.3256L51.8982 1M1 28.3256L51.8982 14.9535M1 28.3256L51.8982 57.3953M1 28.3256V32.3738C1 33.1041 1.39808 33.7764 2.03847 34.1275L51.8982 61.4651M51.8982 1V14.9535M51.8982 1L101 28.907M51.8982 14.9535V57.3953M51.8982 14.9535L101 28.907M51.8982 57.3953L101 28.907M51.8982 57.3953V61.4651M101 28.907V32.3944C101 33.1138 100.614 33.7777 99.9882 34.1332L51.8982 61.4651" stroke="#434343" stroke-width="0.5" stroke-linejoin="round"/>
</svg>
