<svg width="100" height="102" viewBox="0 0 100 102" fill="none" xmlns="http://www.w3.org/2000/svg">
<path d="M91.3574 45.1175V74.5293L41.9747 101L8.02411 82.7646V45.1175L3.70312 46.8822V43.3528L8.02411 38.0587L10.4932 34.5293H41.9747V71.5881L91.3574 45.1175Z" fill="white"/>
<path d="M41.9747 101L91.3574 74.5293V45.1175L41.9747 71.5881M41.9747 101L8.02411 82.7646V45.1175M41.9747 101V71.5881M8.02411 38.0587L10.4932 34.5293H41.9747V71.5881M8.02411 38.0587V45.1175M8.02411 38.0587L3.70312 43.3528V46.8822L8.02411 45.1175" stroke="#434343" stroke-linejoin="round"/>
<path d="M0.979581 45.8037L8.64198 32.7647L63.1157 1.26858C63.42 1.09264 63.7653 1 64.1168 1H77.7778L92.5926 18.6471L99.4853 39.4468C99.7847 40.3503 99.4059 41.3397 98.5795 41.8122L44.4444 72.7647H42.1997C41.3304 72.7647 40.5607 72.2032 40.2953 71.3754L33.9506 51.5882L21.6049 35.7059L10.4938 36.2941L7.31922 41.5882L4.14462 46.8824L3.79076 47.4725C3.38326 48.152 2.54706 48.4415 1.80666 48.1592C0.861588 47.799 0.467159 46.6756 0.979581 45.8037Z" fill="#C4C4C4"/>
<path d="M8.64198 32.7647L0.979581 45.8037C0.467159 46.6756 0.861588 47.799 1.80666 48.1592V48.1592C2.54706 48.4415 3.38326 48.152 3.79076 47.4725L4.14462 46.8824L7.31922 41.5882L10.4938 36.2941M8.64198 32.7647L22.8395 31.5882M8.64198 32.7647L63.1157 1.26858C63.42 1.09264 63.7653 1 64.1168 1H77.7778M8.64198 32.7647L10.4938 36.2941M22.8395 31.5882L37.037 49.8235M22.8395 31.5882L77.7778 1M22.8395 31.5882L21.6049 35.7059M37.037 49.8235L44.4444 72.7647M37.037 49.8235L92.5926 18.6471M37.037 49.8235L33.9506 51.5882M44.4444 72.7647H42.1997C41.3304 72.7647 40.5607 72.2032 40.2953 71.3754L33.9506 51.5882M44.4444 72.7647L98.5795 41.8122C99.4059 41.3397 99.7847 40.3503 99.4853 39.4468L92.5926 18.6471M33.9506 51.5882L21.6049 35.7059M21.6049 35.7059L10.4938 36.2941M77.7778 1L92.5926 18.6471" stroke="#434343" stroke-width="0.5" stroke-linejoin="round"/>
</svg>
