<svg width="20" height="20" viewBox="0 0 20 20" fill="none" xmlns="http://www.w3.org/2000/svg">
<path fill-rule="evenodd" clip-rule="evenodd" d="M0 10C0 4.47715 4.47715 0 10 0V0C15.5228 0 20 4.47715 20 10V10C20 15.5228 15.5228 20 10 20V20C4.47715 20 0 15.5228 0 10V10Z" fill="#FAFAFA"/>
<path fill-rule="evenodd" clip-rule="evenodd" d="M0 9.44444C0 4.22842 4.22842 0 9.44445 0H10.5556C15.7716 0 20 4.22842 20 9.44444V9.44444C20 14.6605 15.7716 18.8889 10.5556 18.8889H9.44445C4.22842 18.8889 0 14.6605 0 9.44444V9.44444Z" fill="#FAFAFA"/>
<path opacity="0.5" fill-rule="evenodd" clip-rule="evenodd" d="M0 9.44444C0 4.22842 4.22842 0 9.44445 0H10.5556C15.7716 0 20 4.22842 20 9.44444V9.44444C20 14.6605 15.7716 18.8889 10.5556 18.8889H9.44445C4.22842 18.8889 0 14.6605 0 9.44444V9.44444Z" fill="white" fill-opacity="0.12"/>
<path fill-rule="evenodd" clip-rule="evenodd" d="M5.88916 9.48891C5.88916 7.98902 5.88916 7.23908 6.27113 6.71335C6.39449 6.54356 6.5438 6.39424 6.71359 6.27088C7.23932 5.88892 7.98927 5.88892 9.48916 5.88892H10.5114C12.0113 5.88892 12.7612 5.88892 13.287 6.27088C13.4567 6.39424 13.6061 6.54356 13.7294 6.71335C14.1114 7.23908 14.1114 7.98902 14.1114 9.48892V10.5111C14.1114 12.011 14.1114 12.761 13.7294 13.2867C13.6061 13.4565 13.4567 13.6058 13.287 13.7292C12.7612 14.1111 12.0113 14.1111 10.5114 14.1111H9.48916C7.98927 14.1111 7.23932 14.1111 6.71359 13.7292C6.5438 13.6058 6.39449 13.4565 6.27113 13.2867C5.88916 12.761 5.88916 12.011 5.88916 10.5111V9.48891ZM10.0002 7.82356C8.79827 7.82356 7.82376 8.79807 7.82376 10C7.82376 11.202 8.79827 12.1765 10.0002 12.1765C11.2022 12.1765 12.1767 11.202 12.1767 10C12.1767 8.79807 11.2022 7.82356 10.0002 7.82356ZM10.0002 11.3603C9.25043 11.3603 8.63993 10.7498 8.63993 10C8.63993 9.24969 9.25043 8.63974 10.0002 8.63974C10.75 8.63974 11.3605 9.24969 11.3605 10C11.3605 10.7498 10.75 11.3603 10.0002 11.3603ZM12.63 7.66033C12.63 7.8205 12.5002 7.95034 12.34 7.95034C12.1798 7.95034 12.05 7.8205 12.05 7.66033C12.05 7.50015 12.1798 7.37031 12.34 7.37031C12.5002 7.37031 12.63 7.50015 12.63 7.66033Z" fill="black"/>
</svg>
