<svg width="20" height="20" viewBox="0 0 20 20" fill="none" xmlns="http://www.w3.org/2000/svg">
<path fill-rule="evenodd" clip-rule="evenodd" d="M0 10C0 4.47715 4.47715 0 10 0V0C15.5228 0 20 4.47715 20 10V10C20 15.5228 15.5228 20 10 20V20C4.47715 20 0 15.5228 0 10V10Z" fill="#FAFAFA"/>
<path fill-rule="evenodd" clip-rule="evenodd" d="M0 9.44444C0 4.22842 4.22842 0 9.44445 0H10.5556C15.7716 0 20 4.22842 20 9.44444V9.44444C20 14.6605 15.7716 18.8889 10.5556 18.8889H9.44445C4.22842 18.8889 0 14.6605 0 9.44444V9.44444Z" fill="#FAFAFA"/>
<path opacity="0.5" fill-rule="evenodd" clip-rule="evenodd" d="M0 9.44444C0 4.22842 4.22842 0 9.44445 0H10.5556C15.7716 0 20 4.22842 20 9.44444V9.44444C20 14.6605 15.7716 18.8889 10.5556 18.8889H9.44445C4.22842 18.8889 0 14.6605 0 9.44444V9.44444Z" fill="white" fill-opacity="0.12"/>
<path fill-rule="evenodd" clip-rule="evenodd" d="M12.0729 13.4047C12.5521 13.6144 12.7319 13.1751 12.7319 13.1751L14 6.80454C13.99 6.37518 13.4109 6.63479 13.4109 6.63479L6.31141 9.42066C6.31141 9.42066 5.97192 9.54048 6.00187 9.75017C6.03183 9.95985 6.30143 10.0597 6.30143 10.0597L8.08877 10.6588C8.08877 10.6588 8.62797 12.4262 8.73781 12.7657C8.83766 13.0952 8.92753 13.1052 8.92753 13.1052C9.02738 13.1451 9.11725 13.0752 9.11725 13.0752L10.2755 12.0268L12.0729 13.4047ZM12.3824 7.93285C12.3824 7.93285 12.632 7.78307 12.6221 7.93285C12.6221 7.93285 12.662 7.95282 12.5322 8.09262C12.4124 8.21244 9.58656 10.7487 9.20712 11.0882C9.17717 11.1081 9.1572 11.1381 9.1572 11.178L9.04736 12.1166C9.02739 12.2165 8.89758 12.2265 8.86762 12.1366L8.39832 10.5989C8.37835 10.539 8.39832 10.4691 8.45823 10.4291L12.3824 7.93285Z" fill="black"/>
</svg>
