<svg width="32" height="32" viewBox="0 0 32 32" fill="none" xmlns="http://www.w3.org/2000/svg">
<path d="M16.372 2.226C16.1332 2.13031 15.8668 2.13031 15.628 2.226L3.692 7L8.5 8.922L20.808 4L16.372 2.226ZM23.5 5.078L11.192 10L16 11.922L28.308 7L23.5 5.078ZM30 8.478L17 13.678V29.522L30 24.322V8.48V8.478ZM15 29.524V13.676L2 8.478V24.324L15 29.524ZM14.886 0.368005C15.6011 0.082003 16.3989 0.082003 17.114 0.368005L31.372 6.072C31.5574 6.1463 31.7163 6.27439 31.8282 6.43978C31.9401 6.60518 32 6.8003 32 7V24.324C31.9997 24.7236 31.8798 25.1141 31.6555 25.4449C31.4313 25.7757 31.1131 26.0317 30.742 26.18L16.372 31.928C16.1332 32.0237 15.8668 32.0237 15.628 31.928L1.26 26.18C0.888502 26.0321 0.569885 25.7761 0.345284 25.4453C0.120683 25.1145 0.000412659 24.7239 0 24.324L0 7C4.64799e-05 6.8003 0.0598875 6.60518 0.171814 6.43978C0.283741 6.27439 0.442625 6.1463 0.628 6.072L14.886 0.368005Z" fill="black"/>
</svg>
