<svg width="32" height="32" viewBox="0 0 32 32" fill="none" xmlns="http://www.w3.org/2000/svg">
<path d="M9.93934 26.0027C9.65803 25.7575 9.5 25.4248 9.5 25.078V18H8L8 25.078C8 25.7717 8.31607 26.437 8.87868 26.9275C9.44129 27.418 10.2043 27.6936 11 27.6936L25.379 27.6936C25.7768 27.6936 26.1583 27.8315 26.4395 28.0767L30.719 31.8079C30.8238 31.8995 30.9574 31.9619 31.1029 31.9873C31.2485 32.0127 31.3994 31.9998 31.5365 31.9504C31.6737 31.901 31.7909 31.8172 31.8734 31.7096C31.9559 31.6021 32 31.4756 32 31.3462V14.6156C32 13.9219 31.6839 13.2566 31.1213 12.7661C30.5587 12.2756 29.7957 12 29 12L26.4395 12V13.3078L29 13.3078C29.3978 13.3078 29.7794 13.4456 30.0607 13.6908C30.342 13.9361 30.5 14.2687 30.5 14.6156L30.5 29.7677L27.5 27.1521C26.9375 26.6616 26.1746 26.3859 25.379 26.3858H11C10.6022 26.3858 10.2206 26.248 9.93934 26.0027Z" fill="black"/>
<path d="M24.5 1.56936C24.9641 1.56936 25.4092 1.7347 25.7374 2.02901C26.0656 2.32332 26.25 2.72249 26.25 3.13871V15.6936C26.25 16.1098 26.0656 16.509 25.7374 16.8033C25.4092 17.0976 24.9641 17.2629 24.5 17.2629H7.7245C6.79632 17.2631 5.90622 17.5939 5.25 18.1826L1.75 21.3213V3.13871C1.75 2.72249 1.93437 2.32332 2.26256 2.02901C2.59075 1.7347 3.03587 1.56936 3.5 1.56936H24.5ZM3.5 0C2.57174 0 1.6815 0.330685 1.02513 0.919308C0.368749 1.50793 0 2.30627 0 3.13871V23.2155C3.6776e-05 23.3708 0.051437 23.5225 0.147695 23.6516C0.243953 23.7806 0.380742 23.8812 0.540749 23.9405C0.700755 23.9998 0.876787 24.0152 1.04656 23.9848C1.21634 23.9543 1.37223 23.8794 1.4945 23.7695L6.48725 19.2921C6.81536 18.9978 7.26041 18.8324 7.7245 18.8323H24.5C25.4283 18.8323 26.3185 18.5016 26.9749 17.913C27.6313 17.3243 28 16.526 28 15.6936V3.13871C28 2.30627 27.6313 1.50793 26.9749 0.919308C26.3185 0.330685 25.4283 0 24.5 0H3.5Z" fill="black"/>
</svg>
