<svg width="32" height="26" viewBox="0 0 32 26" fill="none" xmlns="http://www.w3.org/2000/svg">
<path fill-rule="evenodd" clip-rule="evenodd" d="M28.8 2.44003H3.2C2.31634 2.44003 1.6 3.15637 1.6 4.04003V21.96C1.6 22.8437 2.31634 23.56 3.2 23.56H28.8C29.6837 23.56 30.4 22.8437 30.4 21.96V4.04003C30.4 3.15637 29.6837 2.44003 28.8 2.44003ZM3.2 0.840027C1.43269 0.840027 0 2.27271 0 4.04003V21.96C0 23.7273 1.43269 25.16 3.2 25.16H28.8C30.5673 25.16 32 23.7273 32 21.96V4.04003C32 2.27272 30.5673 0.840027 28.8 0.840027H3.2Z" fill="black"/>
<path d="M0 7.80003C0 7.31402 0.393989 6.92003 0.88 6.92003H31.12C31.606 6.92003 32 7.31402 32 7.80003C32 8.28604 31.606 8.68003 31.12 8.68003H0.879999C0.393989 8.68003 0 8.28604 0 7.80003Z" fill="black"/>
<path d="M3.2 21.08C3.2 20.594 3.59399 20.2 4.08 20.2H5.68C6.16601 20.2 6.56 20.594 6.56 21.08C6.56 21.566 6.16601 21.96 5.68 21.96H4.08C3.59399 21.96 3.2 21.566 3.2 21.08Z" fill="black"/>
<path d="M7.84 21.08C7.84 20.594 8.23399 20.2 8.72 20.2H13.68C14.166 20.2 14.56 20.594 14.56 21.08C14.56 21.566 14.166 21.96 13.68 21.96H8.72C8.23399 21.96 7.84 21.566 7.84 21.08Z" fill="black"/>
</svg>
