<svg width="95" height="100" viewBox="0 0 95 100" fill="none" xmlns="http://www.w3.org/2000/svg">
<path d="M94.125 15.9L40.6406 73L20.7656 51.8L27.375 44.75L40.6406 58.9L87.5156 8.9L94.125 15.9ZM83.7656 41.1C84.375 43.95 84.75 46.95 84.75 50C84.75 72.1 67.9688 90 47.25 90C26.5312 90 9.75 72.1 9.75 50C9.75 27.9 26.5312 10 47.25 10C54.6563 10 61.5 12.3 67.3125 16.25L74.0625 9.05C66.4687 3.35 57.2344 0 47.25 0C21.375 0 0.375 22.4 0.375 50C0.375 77.6 21.375 100 47.25 100C73.125 100 94.125 77.6 94.125 50C94.125 44.05 93.0937 38.35 91.3125 33.05L83.7656 41.1Z" fill="#016059"/>
</svg>
