<svg width="20" height="20" viewBox="0 0 20 20" fill="none" xmlns="http://www.w3.org/2000/svg">
<path fill-rule="evenodd" clip-rule="evenodd" d="M0 10C0 4.47715 4.47715 0 10 0V0C15.5228 0 20 4.47715 20 10V10C20 15.5228 15.5228 20 10 20V20C4.47715 20 0 15.5228 0 10V10Z" fill="#FAFAFA"/>
<path fill-rule="evenodd" clip-rule="evenodd" d="M0 9.44444C0 4.22842 4.22842 0 9.44445 0H10.5556C15.7716 0 20 4.22842 20 9.44444V9.44444C20 14.6605 15.7716 18.8889 10.5556 18.8889H9.44445C4.22842 18.8889 0 14.6605 0 9.44444V9.44444Z" fill="#FAFAFA"/>
<path opacity="0.5" fill-rule="evenodd" clip-rule="evenodd" d="M0 9.44444C0 4.22842 4.22842 0 9.44445 0H10.5556C15.7716 0 20 4.22842 20 9.44444V9.44444C20 14.6605 15.7716 18.8889 10.5556 18.8889H9.44445C4.22842 18.8889 0 14.6605 0 9.44444V9.44444Z" fill="white" fill-opacity="0.12"/>
<path d="M10.7682 14.6667V10.4093H12.1768L12.3877 8.75011H10.7682V7.69077C10.7682 7.21042 10.8997 6.88303 11.5787 6.88303L12.4448 6.88262V5.39868C12.2949 5.37853 11.7809 5.33337 11.1828 5.33337C9.93413 5.33337 9.07927 6.10655 9.07927 7.52654V8.75015H7.66699V10.4093H9.07923V14.6667L10.7682 14.6667Z" fill="black"/>
</svg>
