<svg width="230" height="40" viewBox="0 0 230 40" fill="none" xmlns="http://www.w3.org/2000/svg">
<path d="M41.0341 38.5858H32.6295V16.2694L24.2799 32.7548H16.8092L8.45951 16.6293V38.5858H0V0.503906H9.33842L20.6544 22.0285L31.8605 0.503906H41.0341V38.5858V38.5858ZM33.3986 37.578H40.2651V1.51174H32.245L20.6544 23.8282L8.95389 1.51174H0.769043V37.578H7.69047V13.3898L17.2486 31.7469H23.8954L33.3986 12.9579V37.578Z" fill="url(#paint0_linear_308_4316)"/>
<path d="M80.5849 38.4418H51.416V0.359863H80.2004V9.50238H60.2601V14.6136H77.7834V23.5401H60.2601V29.2992H80.5849V38.4418V38.4418ZM52.1851 37.4339H79.8159V30.379H59.491V22.6043H77.0143V15.6934H59.491V8.49455H79.4313V1.43969H52.1851V37.4339Z" fill="url(#paint1_linear_308_4316)"/>
<path d="M111.622 38.2977H102.668V9.35837H90.9673V0.21582H123.487V9.35837H111.677V38.2977H111.622ZM103.437 37.2899H110.853V8.35051H122.718V1.29565H91.7363V8.35051H103.437V37.2899V37.2899Z" fill="url(#paint2_linear_308_4316)"/>
<path d="M142.768 38.2259H133.814V0.144043H142.768V38.2259ZM134.583 37.2181H141.999V1.15188H134.583V37.2181Z" fill="url(#paint3_linear_308_4316)"/>
<path d="M188.801 38.6581H176.002L164.576 25.1242L162.049 27.8598V38.6581H153.205V0.576172H162.049V15.4058L175.617 0.576172H187.757L171.388 17.9254L188.801 38.6581ZM176.276 37.6502H186.823L170.179 17.9254L185.56 1.58401H175.892L161.28 17.5655V1.58401H153.974V37.6502H161.28V27.3559L164.631 23.8284L176.276 37.6502Z" fill="url(#paint4_linear_308_4316)"/>
<path d="M213.191 39.2337C203.084 39.2337 197.48 35.2744 196.162 26.9957L196.052 26.4918L205.116 24.836L205.226 25.2679C205.885 28.7954 208.467 30.3791 213.356 30.3791C220.112 30.3791 220.881 28.7954 220.881 27.5716C220.881 26.1318 220.552 25.196 215.938 24.62L207.863 23.9002C200.612 23.1083 196.986 19.2929 196.986 12.598C196.986 4.60726 202.864 0 213.191 0C222.749 0 227.968 3.7434 229.286 11.5182L229.396 12.0221L220.332 13.6778L220.222 13.2459C219.508 10.0784 217.531 8.78258 213.026 8.78258C208.357 8.78258 206.105 9.71843 206.105 11.5901C206.105 13.0299 206.819 13.8938 210.664 14.3977L218.904 15.1176C226.484 16.0534 230 19.6528 230 26.4918C230 32.3228 227.089 39.2337 213.191 39.2337ZM197.041 27.3556C198.414 34.7704 203.578 38.2259 213.191 38.2259C223.683 38.2259 229.231 34.1945 229.231 26.4918C229.231 20.2288 225.935 16.9173 218.849 16.0534L210.609 15.3335C207.258 14.9016 205.336 14.1817 205.336 11.5182C205.336 8.92657 207.698 7.70275 213.026 7.70275C217.695 7.70275 220.003 9.07054 220.826 12.454L228.407 11.0862C227.034 4.24732 222.035 0.863849 213.191 0.863849C203.413 0.863849 197.755 5.11117 197.755 12.454C197.755 18.645 201.106 22.0285 207.972 22.7483L216.047 23.4682C220.442 23.9721 221.705 24.908 221.705 27.4276C221.705 30.0912 219.233 31.243 213.411 31.243C208.357 31.243 205.555 29.5153 204.677 25.7719L197.041 27.3556Z" fill="url(#paint5_linear_308_4316)"/>
<defs>
<linearGradient id="paint0_linear_308_4316" x1="0.0153809" y1="19.5207" x2="41.0596" y2="19.5207" gradientUnits="userSpaceOnUse">
<stop stop-color="#4D4D4D"/>
<stop offset="0.8499" stop-color="white"/>
</linearGradient>
<linearGradient id="paint1_linear_308_4316" x1="51.4152" y1="19.4042" x2="80.5833" y2="19.4042" gradientUnits="userSpaceOnUse">
<stop stop-color="#4D4D4D"/>
<stop offset="0.8499" stop-color="white"/>
</linearGradient>
<linearGradient id="paint2_linear_308_4316" x1="90.9395" y1="19.2877" x2="123.461" y2="19.2877" gradientUnits="userSpaceOnUse">
<stop stop-color="#4D4D4D"/>
<stop offset="0.8499" stop-color="white"/>
</linearGradient>
<linearGradient id="paint3_linear_308_4316" x1="133.817" y1="19.1714" x2="142.787" y2="19.1714" gradientUnits="userSpaceOnUse">
<stop stop-color="#4D4D4D"/>
<stop offset="0.8499" stop-color="white"/>
</linearGradient>
<linearGradient id="paint4_linear_308_4316" x1="153.143" y1="19.6375" x2="188.783" y2="19.6375" gradientUnits="userSpaceOnUse">
<stop stop-color="#4D4D4D"/>
<stop offset="0.8499" stop-color="white"/>
</linearGradient>
<linearGradient id="paint5_linear_308_4316" x1="196.089" y1="19.6372" x2="229.979" y2="19.6372" gradientUnits="userSpaceOnUse">
<stop stop-color="#4D4D4D"/>
<stop offset="0.8499" stop-color="white"/>
</linearGradient>
</defs>
</svg>
