<svg width="53" height="53" viewBox="0 0 53 53" fill="none" xmlns="http://www.w3.org/2000/svg">
<path d="M26.0417 48.8281C19.9983 48.8281 14.2025 46.4274 9.92921 42.1541C5.65592 37.8808 3.25521 32.085 3.25521 26.0417C3.25521 19.9983 5.65592 14.2025 9.92921 9.92921C14.2025 5.65592 19.9983 3.25521 26.0417 3.25521C32.085 3.25521 37.8808 5.65592 42.1541 9.92921C46.4274 14.2025 48.8281 19.9983 48.8281 26.0417C48.8281 32.085 46.4274 37.8808 42.1541 42.1541C37.8808 46.4274 32.085 48.8281 26.0417 48.8281ZM26.0417 52.0833C32.9483 52.0833 39.5721 49.3397 44.4559 44.4559C49.3397 39.5721 52.0833 32.9483 52.0833 26.0417C52.0833 19.135 49.3397 12.5112 44.4559 7.62743C39.5721 2.74367 32.9483 0 26.0417 0C19.135 0 12.5112 2.74367 7.62743 7.62743C2.74367 12.5112 0 19.135 0 26.0417C0 32.9483 2.74367 39.5721 7.62743 44.4559C12.5112 49.3397 19.135 52.0833 26.0417 52.0833Z" fill="#434343"/>
<path d="M20.4134 16.4551C20.6796 16.318 20.9785 16.257 21.2772 16.2788C21.5758 16.3006 21.8627 16.4044 22.1061 16.5788L33.4993 24.7168C33.7103 24.8674 33.8823 25.0661 34.001 25.2966C34.1196 25.527 34.1815 25.7825 34.1815 26.0417C34.1815 26.3009 34.1196 26.5563 34.001 26.7868C33.8823 27.0172 33.7103 27.216 33.4993 27.3665L22.1061 35.5046C21.8627 35.6787 21.576 35.7825 21.2775 35.8043C20.979 35.8261 20.6803 35.7652 20.4142 35.6283C20.1481 35.4913 19.9248 35.2837 19.7691 35.0281C19.6133 34.7725 19.531 34.479 19.5312 34.1797V17.9036C19.5309 17.6044 19.6131 17.3109 19.7687 17.0554C19.9244 16.7998 20.1474 16.5921 20.4134 16.4551Z" fill="#434343"/>
</svg>
